<svg xmlns="http://www.w3.org/2000/svg" width="1600" height="900" viewBox="0 0 1600 900">
    <title>Comprobaciones de Cómo preparar un archivo STEP para compartir CAD</title><desc>Lámina técnica con puntos de control específicos para este artículo.</desc>
    <defs>
    <pattern id="grid" width="32" height="32" patternUnits="userSpaceOnUse">
      <path d="M 32 0 L 0 0 0 32" fill="none" stroke="#2459c4" stroke-opacity="0.09" stroke-width="1"/>
    </pattern>
    <linearGradient id="panel" x1="0" x2="1" y1="0" y2="1"><stop offset="0" stop-color="#f8fbfc"/><stop offset="1" stop-color="#e6f0f2"/></linearGradient>
    <linearGradient id="stress" x1="0" x2="1"><stop offset="0" stop-color="#0b7a75"/><stop offset="0.55" stop-color="#f4a261"/><stop offset="1" stop-color="#dc2626"/></linearGradient>
    <filter id="shadow" x="-20%" y="-20%" width="140%" height="140%"><feDropShadow dx="0" dy="14" stdDeviation="16" flood-color="#132238" flood-opacity="0.13"/></filter>
  </defs><rect width="1600" height="900" fill="#f8fbfc"/>
    <rect width="1600" height="900" fill="url(#grid)"/>
    <path d="M0 88H1600" stroke="#132238" stroke-opacity="0.14"/>
    <path d="M82 0V900M1518 0V900" stroke="#132238" stroke-opacity="0.1"/>
    <text x="82" y="55" fill="#132238" font-family="Arial, sans-serif" font-size="17" font-weight="700" letter-spacing="3">CADLAB3D · LÁMINA 03 · PUNTOS DE COMPROBACIÓN</text>
    <text x="1518" y="55" fill="#132238" fill-opacity="0.62" font-family="Arial, sans-serif" font-size="14" font-weight="700" text-anchor="end" letter-spacing="1.8">PREPARAR-ARCHIVO-STEP-COMPAR</text>
    <g transform="translate(35 75) scale(.92)"><g transform="translate(90 180)">
    <path d="M80 250L260 145 440 235 255 350Z" fill="#2459c4" fill-opacity="0.12" stroke="#2459c4" stroke-width="5"/>
    <path d="M80 250v110l175 95 185-110V235M255 350v105" fill="none" stroke="#132238" stroke-width="5"/>
    <g transform="translate(56 -56)"><path d="M80 250L260 145 440 235 255 350Z" fill="#0b7a75" fill-opacity="0.16" stroke="#0b7a75" stroke-width="5"/><path d="M80 250v70M440 235v70" stroke="#0b7a75" stroke-width="5"/></g>
    <g stroke="#f4a261" stroke-width="7" fill="#f4a261"><path d="M120 155L205 230"/><path d="M190 205l22 31-35-13z"/><path d="M465 150L385 220"/><path d="M402 194l-24 31 36-11z"/></g>
    <g transform="translate(500 120)"><circle cx="95" cy="95" r="82" fill="#f8fbfc" stroke="#132238" stroke-width="5"/><circle cx="95" cy="95" r="29" fill="#f4a261" fill-opacity="0.28" stroke="#f4a261" stroke-width="5"/><path d="M95 12v40M95 138v40M12 95h40M138 95h40" stroke="#132238" stroke-width="5"/></g>
  </g></g>
    <g>
      <circle cx="620" cy="300" r="16" fill="#f4a261" stroke="#f8fbfc" stroke-width="5"/>
      <path d="M638 300H872V233" fill="none" stroke="#f4a261" stroke-width="4"/>
      <rect x="900" y="175" width="500" height="128" fill="#f8fbfc" stroke="#132238" stroke-width="3" filter="url(#shadow)"/>
      <rect x="900" y="175" width="58" height="128" fill="#132238"/>
      <text x="929" y="249" fill="white" font-family="Arial, sans-serif" font-size="23" font-weight="800" text-anchor="middle">01</text>
      <text x="988" y="229" fill="#132238" font-family="Arial, sans-serif" font-size="25" font-weight="800" text-anchor="start" letter-spacing="0"><tspan x="988" dy="0">Árbol conserva componentes</tspan><tspan x="988" dy="34">útiles</tspan></text>
    </g><g>
      <circle cx="645" cy="465" r="16" fill="#f4a261" stroke="#f8fbfc" stroke-width="5"/>
      <path d="M663 465H987V448" fill="none" stroke="#f4a261" stroke-width="4"/>
      <rect x="1015" y="390" width="500" height="128" fill="#f8fbfc" stroke="#0b7a75" stroke-width="3" filter="url(#shadow)"/>
      <rect x="1015" y="390" width="58" height="128" fill="#0b7a75"/>
      <text x="1044" y="464" fill="white" font-family="Arial, sans-serif" font-size="23" font-weight="800" text-anchor="middle">02</text>
      <text x="1103" y="444" fill="#132238" font-family="Arial, sans-serif" font-size="25" font-weight="800" text-anchor="start" letter-spacing="0"><tspan x="1103" dy="0">Sólidos llegan sin superficies</tspan><tspan x="1103" dy="34">abiertas</tspan></text>
    </g><g>
      <circle cx="560" cy="620" r="16" fill="#f4a261" stroke="#f8fbfc" stroke-width="5"/>
      <path d="M578 620H847V668" fill="none" stroke="#f4a261" stroke-width="4"/>
      <rect x="875" y="610" width="500" height="128" fill="#f8fbfc" stroke="#132238" stroke-width="3" filter="url(#shadow)"/>
      <rect x="875" y="610" width="58" height="128" fill="#132238"/>
      <text x="904" y="684" fill="white" font-family="Arial, sans-serif" font-size="23" font-weight="800" text-anchor="middle">03</text>
      <text x="963" y="664" fill="#132238" font-family="Arial, sans-serif" font-size="25" font-weight="800" text-anchor="start" letter-spacing="0"><tspan x="963" dy="0">Coordenadas coinciden con</tspan><tspan x="963" dy="34">referencia</tspan></text>
    </g>
    <rect x="90" y="795" width="1418" height="38" fill="#132238"/>
    <text x="800" y="821" fill="white" font-family="Arial, sans-serif" font-size="16" font-weight="800" text-anchor="middle" letter-spacing="2">COMPROBAR ANTES DE FABRICAR · DOCUMENTAR DESPUÉS DE MEDIR</text>
  </svg>