<svg xmlns="http://www.w3.org/2000/svg" width="1600" height="900" viewBox="0 0 1600 900">
    <title>Cómo elegir espesores mínimos en piezas de plástico</title><desc>Ilustración técnica original creada para CADLAB3D.</desc>
    <defs>
    <pattern id="grid" width="28" height="28" patternUnits="userSpaceOnUse">
      <path d="M 28 0 L 0 0 0 28" fill="none" stroke="#1d4ed8" stroke-opacity="0.09" stroke-width="1"/>
    </pattern>
    <linearGradient id="panel" x1="0" x2="1" y1="0" y2="1"><stop offset="0" stop-color="#f8fafc"/><stop offset="1" stop-color="#e7eff7"/></linearGradient>
    <linearGradient id="stress" x1="0" x2="1"><stop offset="0" stop-color="#0f766e"/><stop offset="0.55" stop-color="#f59e0b"/><stop offset="1" stop-color="#dc2626"/></linearGradient>
    <filter id="shadow" x="-20%" y="-20%" width="140%" height="140%"><feDropShadow dx="0" dy="14" stdDeviation="16" flood-color="#0f172a" flood-opacity="0.13"/></filter>
  </defs><rect width="1600" height="900" fill="#f8fafc"/>
    <rect width="1600" height="900" fill="url(#grid)"/>
    <path d="M0 88H1600" stroke="#0f172a" stroke-opacity="0.14"/>
    <path d="M82 0V900M1518 0V900" stroke="#0f172a" stroke-opacity="0.1"/>
    <text x="82" y="55" fill="#0f172a" font-family="Arial, sans-serif" font-size="17" font-weight="700" letter-spacing="3">CADLAB3D · LÁMINA 01 · VISTA GENERAL</text>
    <text x="1518" y="55" fill="#0f172a" fill-opacity="0.62" font-family="Arial, sans-serif" font-size="14" font-weight="700" text-anchor="end" letter-spacing="1.8">ESPESORES-MINIMOS-PIEZAS-PLA</text>
    <g transform="translate(60 95)"><g><circle cx="155" cy="325" r="81" fill="#0f766e" fill-opacity="0.22" stroke="#0f766e" stroke-width="8"/><circle cx="155" cy="325" r="25" fill="#f8fafc" stroke="#0f172a" stroke-width="4"/><text x="155" y="430" fill="#0f172a" font-family="Arial, sans-serif" font-size="23" font-weight="800" text-anchor="middle">PLA</text><rect x="110" y="490" width="90" height="170" rx="42" fill="#0f766e" fill-opacity="0.16" stroke="#0f766e" stroke-width="5"/><path d="M155 510v130" stroke="#0f766e" stroke-width="8" stroke-linecap="round"/></g><g><circle cx="300" cy="325" r="69" fill="#1d4ed8" fill-opacity="0.22" stroke="#1d4ed8" stroke-width="8"/><circle cx="300" cy="325" r="25" fill="#f8fafc" stroke="#0f172a" stroke-width="4"/><text x="300" y="430" fill="#0f172a" font-family="Arial, sans-serif" font-size="23" font-weight="800" text-anchor="middle">PETG</text><rect x="255" y="490" width="90" height="170" rx="42" fill="#1d4ed8" fill-opacity="0.16" stroke="#1d4ed8" stroke-width="5"/><path d="M300 510v130" stroke="#1d4ed8" stroke-width="8" stroke-linecap="round"/></g><g><circle cx="445" cy="325" r="79" fill="#f59e0b" fill-opacity="0.22" stroke="#f59e0b" stroke-width="8"/><circle cx="445" cy="325" r="25" fill="#f8fafc" stroke="#0f172a" stroke-width="4"/><text x="445" y="430" fill="#0f172a" font-family="Arial, sans-serif" font-size="23" font-weight="800" text-anchor="middle">ABS</text><rect x="400" y="490" width="90" height="170" rx="42" fill="#f59e0b" fill-opacity="0.16" stroke="#f59e0b" stroke-width="5"/><path d="M445 510v130" stroke="#f59e0b" stroke-width="8" stroke-linecap="round"/></g><g><circle cx="590" cy="325" r="74" fill="#7c3aed" fill-opacity="0.22" stroke="#7c3aed" stroke-width="8"/><circle cx="590" cy="325" r="25" fill="#f8fafc" stroke="#0f172a" stroke-width="4"/><text x="590" y="430" fill="#0f172a" font-family="Arial, sans-serif" font-size="23" font-weight="800" text-anchor="middle">PA</text><rect x="545" y="490" width="90" height="170" rx="42" fill="#7c3aed" fill-opacity="0.16" stroke="#7c3aed" stroke-width="5"/><path d="M590 510v130" stroke="#7c3aed" stroke-width="8" stroke-linecap="round"/></g><path d="M90 720H700" stroke="#0f172a" stroke-width="3"/><g stroke="#0f172a" stroke-width="2" fill="none" opacity="0.75">
    <path d="M150 745H650"/>
    <path d="M150 735V755M650 735V755"/>
    <path d="M153 745l10 -6v12zM647 745l-10 -6v12z" fill="#0f172a" stroke="none"/>
  </g><text x="400" y="733" fill="#0f172a" font-family="Arial, sans-serif" font-size="15" font-weight="700" text-anchor="middle">comparativa de probetas</text></g>
    <rect x="875" y="155" width="625" height="590" fill="url(#panel)" stroke="#0f172a" stroke-width="3" filter="url(#shadow)"/>
    <rect x="920" y="205" width="190" height="34" fill="#0f766e"/>
    <text x="1015" y="228" fill="white" font-family="Arial, sans-serif" font-size="15" font-weight="800" text-anchor="middle" letter-spacing="2">MATERIALES</text>
    <text x="920" y="322" fill="#0f172a" font-family="Arial, sans-serif" font-size="56" font-weight="800" text-anchor="start" letter-spacing="0"><tspan x="920" dy="0">Espesor ligado a</tspan><tspan x="920" dy="66">función y proceso</tspan></text>
    <text x="920" y="525" fill="#0f172a" font-family="Arial, sans-serif" font-size="22" font-weight="700" text-anchor="start" letter-spacing="0"><tspan x="920" dy="0">Cómo elegir espesores mínimos en piezas de</tspan><tspan x="920" dy="29">plástico</tspan></text>
    <path d="M920 620H1438" stroke="#1d4ed8" stroke-width="5"/>
    <text x="920" y="666" fill="#1d4ed8" font-family="Arial, sans-serif" font-size="18" font-weight="800" letter-spacing="2">DECISIÓN · PROCESO · EVIDENCIA</text>
    <circle cx="1450" cy="690" r="24" fill="#f59e0b"/><path d="M1438 690l9 9 18-21" fill="none" stroke="#0f172a" stroke-width="6" stroke-linecap="round" stroke-linejoin="round"/>
  </svg>