<svg xmlns="http://www.w3.org/2000/svg" width="1600" height="900" viewBox="0 0 1600 900">
    <title>Errores comunes al diseñar piezas para impresión 3D</title><desc>Ilustración técnica original creada para CADLAB3D.</desc>
    <defs>
    <pattern id="grid" width="36" height="36" patternUnits="userSpaceOnUse">
      <path d="M 36 0 L 0 0 0 36" fill="none" stroke="#315bb5" stroke-opacity="0.09" stroke-width="1"/>
    </pattern>
    <linearGradient id="panel" x1="0" x2="1" y1="0" y2="1"><stop offset="0" stop-color="#f9fbfe"/><stop offset="1" stop-color="#e8eef8"/></linearGradient>
    <linearGradient id="stress" x1="0" x2="1"><stop offset="0" stop-color="#167d73"/><stop offset="0.55" stop-color="#e98a15"/><stop offset="1" stop-color="#dc2626"/></linearGradient>
    <filter id="shadow" x="-20%" y="-20%" width="140%" height="140%"><feDropShadow dx="0" dy="14" stdDeviation="16" flood-color="#111827" flood-opacity="0.13"/></filter>
  </defs><rect width="1600" height="900" fill="#f9fbfe"/>
    <rect width="1600" height="900" fill="url(#grid)"/>
    <path d="M0 88H1600" stroke="#111827" stroke-opacity="0.14"/>
    <path d="M82 0V900M1518 0V900" stroke="#111827" stroke-opacity="0.1"/>
    <text x="82" y="55" fill="#111827" font-family="Arial, sans-serif" font-size="17" font-weight="700" letter-spacing="3">CADLAB3D · LÁMINA 01 · VISTA GENERAL</text>
    <text x="1518" y="55" fill="#111827" fill-opacity="0.62" font-family="Arial, sans-serif" font-size="14" font-weight="700" text-anchor="end" letter-spacing="1.8">ERRORES-DISENO-PIEZAS-IMPRES</text>
    <g transform="translate(80 125)">
    <path d="M80 70H600V600H80Z" fill="none" stroke="#111827" stroke-width="14"/>
    <path d="M135 150H545M135 520H545" stroke="#315bb5" stroke-width="8"/>
    <path d="M340 150V280" stroke="#111827" stroke-width="10"/>
    <path d="M305 275H375L355 340H325Z" fill="#e98a15" stroke="#111827" stroke-width="5"/>
    <path d="M340 340V385" stroke="#e98a15" stroke-width="7" stroke-dasharray="9 8"/>
    <rect x="115" y="515" width="450" height="32" rx="4" fill="#111827"/>
    <path d="M150.5 570H449.5" stroke="#e98a15" stroke-width="12" stroke-linecap="round"/><path d="M164.5 552H435.5" stroke="#167d73" stroke-width="12" stroke-linecap="round"/><path d="M178.5 534H421.5" stroke="#167d73" stroke-width="12" stroke-linecap="round"/><path d="M192.5 516H407.5" stroke="#e98a15" stroke-width="12" stroke-linecap="round"/><path d="M206.5 498H393.5" stroke="#167d73" stroke-width="12" stroke-linecap="round"/><path d="M220.5 480H379.5" stroke="#167d73" stroke-width="12" stroke-linecap="round"/><path d="M234.5 462H365.5" stroke="#e98a15" stroke-width="12" stroke-linecap="round"/><path d="M248.5 444H351.5" stroke="#167d73" stroke-width="12" stroke-linecap="round"/>
    <path d="M585 155V515" stroke="#315bb5" stroke-width="3" stroke-dasharray="12 10"/>
    <circle cx="585" cy="385" r="14" fill="#e98a15"/>
  </g><g stroke="#111827" stroke-width="2" fill="none" opacity="0.75">
    <path d="M185 760H625"/>
    <path d="M185 750V770M625 750V770"/>
    <path d="M188 760l10 -6v12zM622 760l-10 -6v12z" fill="#111827" stroke="none"/>
  </g><text x="405" y="748" fill="#111827" font-family="Arial, sans-serif" font-size="15" font-weight="700" text-anchor="middle">0.24 mm / capa</text>
    <rect x="875" y="155" width="625" height="590" fill="url(#panel)" stroke="#111827" stroke-width="3" filter="url(#shadow)"/>
    <rect x="920" y="205" width="190" height="34" fill="#167d73"/>
    <text x="1015" y="228" fill="white" font-family="Arial, sans-serif" font-size="15" font-weight="800" text-anchor="middle" letter-spacing="2">IMPRESIÓN 3D</text>
    <text x="920" y="322" fill="#111827" font-family="Arial, sans-serif" font-size="56" font-weight="800" text-anchor="start" letter-spacing="0"><tspan x="920" dy="0">Errores visibles</tspan><tspan x="920" dy="66">antes de laminar</tspan></text>
    <text x="920" y="525" fill="#111827" font-family="Arial, sans-serif" font-size="22" font-weight="700" text-anchor="start" letter-spacing="0"><tspan x="920" dy="0">Errores comunes al diseñar piezas para</tspan><tspan x="920" dy="29">impresión 3D</tspan></text>
    <path d="M920 620H1438" stroke="#315bb5" stroke-width="5"/>
    <text x="920" y="666" fill="#315bb5" font-family="Arial, sans-serif" font-size="18" font-weight="800" letter-spacing="2">DECISIÓN · PROCESO · EVIDENCIA</text>
    <circle cx="1450" cy="690" r="24" fill="#e98a15"/><path d="M1438 690l9 9 18-21" fill="none" stroke="#111827" stroke-width="6" stroke-linecap="round" stroke-linejoin="round"/>
  </svg>